# xmcd
#
# Track frame offsets:
#	150
#	17987
#	37907
#	56217
#	79885
#	99560
#	125904
#	148497
#	174307
#	201080
#
# Disc length: 2905 seconds
#
# Revision: 0
# Processed by: cddbd v1.5.2PL0 Copyright (c) Steve Scherf et al.
# Submitted via: EZCDAudioConverter 8.0.2.1
#
DISCID=930b570a
DTITLE=Various Artist - Trái Tim Sỏi Ðá
DYEAR=2000
DGENRE=Contemporary Pop
TTITLE0=Lê Tâm - Trái Tim Sỏi Đá
TTITLE1=Diệp Thanh Thanh - Ngày nào em đi lấy chồng
TTITLE2=Gia Huy - Yêu em một thoáng may bay
TTITLE3=Lâm Thúy Vân - Phút ban đầu
TTITLE4=Vũ Tuấn Đức - Tình đã vụt bay
TTITLE5=Lâm Thúy Vân - Một thời đã xa
TTITLE6=Gia Huy - Lời cha
TTITLE7=Chế Phương - Xin em đừng quên
TTITLE8=Lâm Thúy Vân - Em vẫn cô đơn
TTITLE9=Gia Huy - Em là muôn hoa
EXTD=
EXTT0=
EXTT1=
EXTT2=
EXTT3=
EXTT4=
EXTT5=
EXTT6=
EXTT7=
EXTT8=
EXTT9=
PLAYORDER=
